<svg width="52" height="52" viewBox="0 0 52 52" fill="none" xmlns="http://www.w3.org/2000/svg">
<g clip-path="url(#clip0_111_81)">
<path fill-rule="evenodd" clip-rule="evenodd" d="M26 52C11.6429 52 0 40.3571 0 26C0 11.6429 11.6429 0 26 0C40.3571 0 52 11.6429 52 26C52 40.3571 40.3571 52 26 52ZM26 9.08854C33.1125 9.08854 38.8782 14.8542 38.8782 21.9667C38.8782 29.0791 26 42.9113 26 42.9113C26 42.9113 13.1218 29.0791 13.1218 21.9667C13.1218 14.8542 18.8875 9.08854 26 9.08854ZM26 16.85C28.6966 16.85 30.8835 19.0369 30.8835 21.7337C30.8835 24.4304 28.6966 26.6172 26 26.6172C23.3034 26.6172 21.1165 24.4304 21.1165 21.7337C21.1165 19.0369 23.3034 16.85 26 16.85Z" fill="black"/>
</g>
<defs>
<clipPath id="clip0_111_81">
<rect width="52" height="52" fill="white"/>
</clipPath>
</defs>
</svg>
