<svg width="209" height="50" viewBox="0 0 209 50" fill="none" xmlns="http://www.w3.org/2000/svg">
<path fill-rule="evenodd" clip-rule="evenodd" d="M20.3249 20.6441C19.7439 21.6773 18.2562 21.6773 17.6751 20.6441L9.58904 6.26505C9.01923 5.25182 9.75145 4 10.9139 4L27.086 4C28.2486 4 28.9807 5.25181 28.4109 6.26505L20.3249 20.6441ZM16.6441 24.3249C17.6773 23.7438 17.6773 22.2562 16.6441 21.6751L2.26505 13.589C1.25181 13.0192 7.5772e-07 13.7514 7.06914e-07 14.9139L0 31.086C-5.0806e-08 32.2486 1.25182 32.9807 2.26505 32.4109L16.6441 24.3249ZM20.3249 25.356C19.7439 24.3226 18.2562 24.3228 17.6751 25.356L9.58904 39.735C9.01925 40.7483 9.75145 42 10.9139 42H27.086C28.2486 42 28.9807 40.7481 28.4109 39.735L20.3249 25.356ZM21.356 21.6751C20.3226 22.2562 20.3226 23.7438 21.356 24.3249L35.735 32.4109C36.7483 32.9807 38 32.2486 38 31.086V14.9139C38 13.7515 36.7481 13.0192 35.735 13.5891L21.356 21.6751Z" fill="white"/>
<path d="M77.248 6.984L68.896 22.584L77.536 39H67.504L63.568 31.224L60.256 39H50.416L59.2 22.824L50.896 6.984H60.784L64.528 14.28L67.504 6.984H77.248ZM94.1463 6.84V16.008C93.4423 15.752 92.9623 15.624 92.7063 15.624C91.9703 15.624 91.3303 15.864 90.7863 16.344C90.2423 16.792 89.9703 17.432 89.9703 18.264C89.9703 19.032 90.2423 19.88 90.7863 20.808L91.5063 22.056C92.8183 24.36 93.4743 26.616 93.4743 28.824C93.4743 31.672 92.3703 34.168 90.1623 36.312C87.9863 38.456 85.2663 39.528 82.0023 39.528C80.3703 39.528 78.8663 39.224 77.4902 38.616V29.352C78.3543 29.896 79.2183 30.168 80.0823 30.168C80.8823 30.168 81.5383 29.944 82.0503 29.496C82.5623 29.016 82.8183 28.408 82.8183 27.672C82.8183 27.32 82.3703 26.36 81.4743 24.792C80.0663 22.264 79.3623 19.752 79.3623 17.256C79.3623 14.248 80.4343 11.656 82.5783 9.48C84.7223 7.304 87.2823 6.216 90.2583 6.216C91.6023 6.216 92.8983 6.424 94.1463 6.84ZM112.917 16.2V39H103.413V16.2H96.1173V6.984H120.165V16.2H112.917ZM138.58 6.216C141.588 6.216 144.388 6.968 146.98 8.472C149.572 9.944 151.62 11.976 153.124 14.568C154.628 17.128 155.38 19.896 155.38 22.872C155.38 25.848 154.628 28.632 153.124 31.224C151.62 33.784 149.572 35.816 146.98 37.32C144.388 38.792 141.588 39.528 138.58 39.528C135.572 39.528 132.772 38.792 130.18 37.32C127.588 35.816 125.54 33.784 124.036 31.224C122.532 28.632 121.78 25.848 121.78 22.872C121.78 19.896 122.532 17.128 124.036 14.568C125.54 11.976 127.588 9.944 130.18 8.472C132.772 6.968 135.572 6.216 138.58 6.216ZM138.532 30.216C140.58 30.216 142.324 29.496 143.764 28.056C145.204 26.616 145.924 24.888 145.924 22.872C145.924 20.856 145.188 19.128 143.716 17.688C142.276 16.216 140.548 15.48 138.532 15.48C136.516 15.48 134.772 16.216 133.3 17.688C131.86 19.128 131.14 20.856 131.14 22.872C131.14 24.888 131.86 26.616 133.3 28.056C134.74 29.496 136.484 30.216 138.532 30.216ZM169.345 15.624V39H159.841V6.984H172.033C175.777 6.984 178.721 7.976 180.865 9.96C183.041 11.912 184.129 14.472 184.129 17.64C184.129 20.904 182.705 23.624 179.857 25.8L185.377 39H175.345L170.737 28.68V20.472H171.505C173.521 20.472 174.529 19.608 174.529 17.88C174.529 16.376 173.361 15.624 171.025 15.624H169.345ZM205.569 19.464V26.568H199.377C198.545 26.568 197.953 26.696 197.601 26.952C197.249 27.208 197.073 27.624 197.073 28.2C197.073 28.872 197.233 29.32 197.553 29.544C197.905 29.768 198.657 29.88 199.809 29.88H206.193V39H198.705C195.185 39 192.497 38.168 190.641 36.504C188.785 34.808 187.857 32.376 187.857 29.208V16.68C187.857 13.608 188.737 11.224 190.497 9.528C192.257 7.832 194.737 6.984 197.937 6.984H206.193V16.2H200.097C198.465 16.2 197.648 16.728 197.648 17.784C197.648 18.456 197.857 18.904 198.273 19.128C198.721 19.352 199.409 19.464 200.337 19.464H205.569Z" fill="white"/>
</svg>
