<svg width="210" height="50" viewBox="0 0 210 50" fill="none" xmlns="http://www.w3.org/2000/svg">
<g clip-path="url(#clip0_14_483)">
<path fill-rule="evenodd" clip-rule="evenodd" d="M20.8249 20.6441C20.2439 21.6773 18.7562 21.6773 18.1751 20.6441L10.089 6.26505C9.51923 5.25182 10.2514 4 11.4139 4L27.586 4C28.7486 4 29.4807 5.25181 28.9109 6.26505L20.8249 20.6441ZM17.1441 24.3249C18.1773 23.7438 18.1773 22.2562 17.1441 21.6751L2.76505 13.589C1.75181 13.0192 0.500001 13.7514 0.500001 14.9139L0.5 31.086C0.5 32.2486 1.75182 32.9807 2.76505 32.4109L17.1441 24.3249ZM20.8249 25.356C20.2439 24.3226 18.7562 24.3228 18.1751 25.356L10.089 39.735C9.51925 40.7483 10.2514 42 11.4139 42H27.586C28.7486 42 29.4807 40.7481 28.9109 39.735L20.8249 25.356ZM21.856 21.6751C20.8226 22.2562 20.8226 23.7438 21.856 24.3249L36.235 32.4109C37.2483 32.9807 38.5 32.2486 38.5 31.086V14.9139C38.5 13.7515 37.2481 13.0192 36.235 13.5891L21.856 21.6751Z" fill="#242424"/>
</g>
<path d="M77.748 6.984L69.396 22.584L78.036 39H68.004L64.068 31.224L60.756 39H50.916L59.7 22.824L51.396 6.984H61.284L65.028 14.28L68.004 6.984H77.748ZM94.6463 6.84V16.008C93.9423 15.752 93.4623 15.624 93.2063 15.624C92.4703 15.624 91.8303 15.864 91.2863 16.344C90.7423 16.792 90.4703 17.432 90.4703 18.264C90.4703 19.032 90.7423 19.88 91.2863 20.808L92.0063 22.056C93.3183 24.36 93.9743 26.616 93.9743 28.824C93.9743 31.672 92.8703 34.168 90.6623 36.312C88.4863 38.456 85.7663 39.528 82.5023 39.528C80.8703 39.528 79.3663 39.224 77.9902 38.616V29.352C78.8543 29.896 79.7183 30.168 80.5823 30.168C81.3823 30.168 82.0383 29.944 82.5503 29.496C83.0623 29.016 83.3183 28.408 83.3183 27.672C83.3183 27.32 82.8703 26.36 81.9743 24.792C80.5663 22.264 79.8623 19.752 79.8623 17.256C79.8623 14.248 80.9343 11.656 83.0783 9.48C85.2223 7.304 87.7823 6.216 90.7583 6.216C92.1023 6.216 93.3983 6.424 94.6463 6.84ZM113.417 16.2V39H103.913V16.2H96.6173V6.984H120.665V16.2H113.417ZM139.08 6.216C142.088 6.216 144.888 6.968 147.48 8.472C150.072 9.944 152.12 11.976 153.624 14.568C155.128 17.128 155.88 19.896 155.88 22.872C155.88 25.848 155.128 28.632 153.624 31.224C152.12 33.784 150.072 35.816 147.48 37.32C144.888 38.792 142.088 39.528 139.08 39.528C136.072 39.528 133.272 38.792 130.68 37.32C128.088 35.816 126.04 33.784 124.536 31.224C123.032 28.632 122.28 25.848 122.28 22.872C122.28 19.896 123.032 17.128 124.536 14.568C126.04 11.976 128.088 9.944 130.68 8.472C133.272 6.968 136.072 6.216 139.08 6.216ZM139.032 30.216C141.08 30.216 142.824 29.496 144.264 28.056C145.704 26.616 146.424 24.888 146.424 22.872C146.424 20.856 145.688 19.128 144.216 17.688C142.776 16.216 141.048 15.48 139.032 15.48C137.016 15.48 135.272 16.216 133.8 17.688C132.36 19.128 131.64 20.856 131.64 22.872C131.64 24.888 132.36 26.616 133.8 28.056C135.24 29.496 136.984 30.216 139.032 30.216ZM169.845 15.624V39H160.341V6.984H172.533C176.277 6.984 179.221 7.976 181.365 9.96C183.541 11.912 184.629 14.472 184.629 17.64C184.629 20.904 183.205 23.624 180.357 25.8L185.877 39H175.845L171.237 28.68V20.472H172.005C174.021 20.472 175.029 19.608 175.029 17.88C175.029 16.376 173.861 15.624 171.525 15.624H169.845ZM206.069 19.464V26.568H199.877C199.045 26.568 198.453 26.696 198.101 26.952C197.749 27.208 197.573 27.624 197.573 28.2C197.573 28.872 197.733 29.32 198.053 29.544C198.405 29.768 199.157 29.88 200.309 29.88H206.693V39H199.205C195.685 39 192.997 38.168 191.141 36.504C189.285 34.808 188.357 32.376 188.357 29.208V16.68C188.357 13.608 189.237 11.224 190.997 9.528C192.757 7.832 195.237 6.984 198.437 6.984H206.693V16.2H200.597C198.965 16.2 198.148 16.728 198.148 17.784C198.148 18.456 198.357 18.904 198.773 19.128C199.221 19.352 199.909 19.464 200.837 19.464H206.069Z" fill="#242424"/>
<defs>
<clipPath id="clip0_14_483">
<rect width="42" height="42" fill="white" transform="translate(0.5 4)"/>
</clipPath>
</defs>
</svg>
