<svg width="52" height="52" viewBox="0 0 52 52" fill="none" xmlns="http://www.w3.org/2000/svg">
<g clip-path="url(#clip0_111_65)">
<path d="M44.382 7.61235C34.2269 -2.53974 17.7645 -2.5373 7.61245 7.61793C-2.53963 17.7732 -2.5372 34.2354 7.61804 44.3875C17.7733 54.5396 34.2355 54.5372 44.3876 44.3819C49.2632 39.5048 52.0016 32.8905 52 25.9943C51.9986 19.0993 49.2584 12.4871 44.382 7.61235ZM39.3761 36.2176C39.375 36.2187 39.3739 36.22 39.3727 36.2211V36.2124L38.0553 37.5211C36.3516 39.2463 33.8703 39.9561 31.5119 39.3931C29.1359 38.7571 26.8771 37.7447 24.8213 36.3944C22.9113 35.1738 21.1413 33.7468 19.5433 32.1391C18.073 30.6795 16.7521 29.0769 15.5999 27.3551C14.3397 25.5024 13.3423 23.4841 12.6359 21.3577C11.8262 18.8597 12.4972 16.1186 14.3693 14.2771L15.9119 12.7344C16.3408 12.3036 17.0378 12.3021 17.4685 12.731C17.4696 12.7321 17.4708 12.7332 17.4719 12.7344L22.3426 17.6051C22.7734 18.034 22.7749 18.7309 22.346 19.1616C22.3449 19.1627 22.3438 19.1639 22.3426 19.1651L19.4826 22.0251C18.6619 22.8368 18.5588 24.1266 19.2399 25.0584C20.2744 26.4781 21.4191 27.8139 22.6633 29.0538C24.0505 30.447 25.5586 31.7144 27.1699 32.8412C28.101 33.4906 29.3632 33.3811 30.1686 32.5812L32.9332 29.7732C33.3621 29.3424 34.059 29.3408 34.4897 29.7697C34.4909 29.7708 34.492 29.772 34.4932 29.7732L39.3726 34.6612C39.8035 35.09 39.805 35.7868 39.3761 36.2176Z" fill="black"/>
</g>
<defs>
<clipPath id="clip0_111_65">
<rect width="52" height="52" fill="white"/>
</clipPath>
</defs>
</svg>
